<?xml version="1.0" standalone="no"?>
<!DOCTYPE svg PUBLIC "-//W3C//DTD SVG 20010904//EN"
 "http://www.w3.org/TR/2001/REC-SVG-20010904/DTD/svg10.dtd">
<svg version="1.0" xmlns="http://www.w3.org/2000/svg"
 width="867.000000pt" height="867.000000pt" viewBox="0 0 867.000000 867.000000"
 preserveAspectRatio="xMidYMid meet">

<g transform="translate(0.000000,867.000000) scale(0.100000,-0.100000)"
fill="#000000" stroke="none">
<path d="M1205 8359 c-17 -18 -19 -40 -19 -260 -1 -201 2 -242 14 -249 9 -6
563 -10 1411 -10 1321 0 1670 -6 1904 -30 250 -27 390 -46 525 -71 269 -51
638 -205 885 -370 402 -268 698 -714 786 -1184 50 -270 71 -596 49 -789 -51
-445 -171 -776 -390 -1071 -130 -174 -205 -245 -419 -394 -203 -142 -570 -304
-807 -356 -491 -108 -551 -111 -2464 -113 -848 -2 -1458 -6 -1463 -11 -5 -5
-9 -29 -8 -53 0 -24 3 -619 7 -1323 4 -1083 3 -1317 -10 -1520 -15 -240 -15
-240 5 -257 19 -16 49 -18 305 -17 191 1 286 5 291 12 4 6 9 601 12 1321 l6
1311 1215 6 c1163 5 1528 14 1653 39 26 6 67 10 90 10 23 0 56 4 74 9 22 6 36
6 46 -2 8 -7 99 -131 201 -277 103 -146 198 -281 212 -300 58 -80 273 -385
324 -459 30 -44 81 -115 112 -158 32 -43 58 -86 58 -95 0 -10 4 -18 10 -18 12
0 100 -120 100 -136 0 -7 8 -19 18 -26 21 -16 92 -112 92 -125 0 -6 10 -18 21
-29 20 -18 32 -34 99 -134 46 -69 64 -95 71 -100 4 -3 17 -21 30 -40 13 -19
44 -62 69 -95 53 -70 85 -116 146 -205 24 -36 73 -105 109 -155 37 -49 97
-137 135 -195 38 -58 76 -112 85 -121 22 -22 76 -27 408 -35 249 -6 287 -5
287 8 0 17 -74 125 -433 633 -288 406 -363 511 -411 573 -26 34 -54 74 -171
241 -22 32 -61 86 -87 121 -27 35 -48 69 -48 75 0 7 -9 20 -21 31 -18 16 -137
178 -264 359 -16 23 -61 85 -98 136 -269 370 -447 627 -444 643 1 13 29 29
102 58 507 200 729 330 995 582 292 277 478 567 618 966 44 124 101 377 124
545 19 146 16 696 -4 835 -103 687 -370 1160 -906 1603 -332 275 -783 472
-1367 597 -40 8 -120 22 -237 40 -285 43 -573 49 -2204 50 -1411 0 -1411 0
-1429 -21z"/>
</g>
</svg>
