<?xml version="1.0" standalone="no"?>
<!DOCTYPE svg PUBLIC "-//W3C//DTD SVG 20010904//EN"
 "http://www.w3.org/TR/2001/REC-SVG-20010904/DTD/svg10.dtd">
<svg version="1.0" xmlns="http://www.w3.org/2000/svg"
 width="208.000000pt" height="208.000000pt" viewBox="0 0 208.000000 208.000000"
 preserveAspectRatio="xMidYMid meet">

<g transform="translate(0.000000,208.000000) scale(0.100000,-0.100000)"
fill="#000000" stroke="none">
<path d="M40 1040 l0 -1000 1000 0 1000 0 0 1000 0 1000 -1000 0 -1000 0 0
-1000z m716 896 c74 -26 142 -82 178 -146 28 -50 31 -63 31 -145 0 -70 -5
-100 -21 -135 -26 -56 -75 -104 -136 -136 -27 -13 -48 -27 -48 -31 0 -3 50
-75 110 -160 61 -84 110 -156 110 -158 0 -3 -17 -5 -37 -5 -37 0 -40 2 -147
155 l-109 155 -178 0 -178 0 -3 -152 -3 -153 -32 -3 -33 -3 0 185 0 184 223 4
c206 3 226 5 272 26 61 28 91 55 117 106 49 96 29 225 -46 294 -68 63 -115 73
-363 79 l-213 6 0 29 0 30 228 -4 c184 -4 237 -8 278 -22z m1074 -6 c0 -16 -3
-30 -7 -30 -5 0 -142 -3 -305 -7 l-298 -6 0 36 0 37 305 0 305 0 0 -30z m0
-430 l0 -30 -305 0 -305 0 0 30 0 30 305 0 305 0 0 -30z m-2 -447 l3 -33 -305
0 -306 0 0 28 c0 16 3 32 7 35 4 4 140 6 302 5 l296 -3 3 -32z m-918 -133 l0
-30 -150 0 -150 0 0 -386 0 -385 -27 3 -28 3 -3 383 -2 382 -145 0 -145 0 0
30 0 30 325 0 325 0 0 -30z m671 -7 c164 -77 246 -216 237 -402 -3 -71 -10
-99 -36 -154 -147 -315 -627 -315 -774 0 -26 55 -33 83 -36 154 -7 143 42 262
140 341 94 77 162 98 298 95 94 -2 112 -6 171 -34z"/>
<path d="M1290 885 c-116 -32 -213 -128 -246 -243 -21 -73 -15 -190 14 -254
29 -66 104 -143 171 -175 51 -26 66 -28 166 -28 92 1 118 4 158 22 66 31 138
102 172 170 27 52 29 68 30 158 0 87 -3 107 -26 155 -74 158 -266 243 -439
195z"/>
</g>
</svg>
