<?xml version="1.0" encoding="UTF-8"?>
<!DOCTYPE svg PUBLIC "-//W3C//DTD SVG 1.1//EN" "http://www.w3.org/Graphics/SVG/1.1/DTD/svg11.dtd">
<svg xmlns="http://www.w3.org/2000/svg" version="1.1" width="376px" height="97px" style="shape-rendering:geometricPrecision; text-rendering:geometricPrecision; image-rendering:optimizeQuality; fill-rule:evenodd; clip-rule:evenodd" xmlns:xlink="http://www.w3.org/1999/xlink">
<g><path style="opacity:0.869" fill="#fefffe" d="M 16.5,0.5 C 32.2101,0.0985099 47.8768,0.59851 63.5,2C 84.2948,9.08834 91.7948,23.255 86,44.5C 82.0159,53.1514 75.5159,58.9848 66.5,62C 74.2889,72.4113 81.9556,82.9113 89.5,93.5C 86.5541,94.6548 83.5541,94.8214 80.5,94C 73.3565,83.5357 65.8565,73.3691 58,63.5C 46.5334,64.3023 35.0334,64.8023 23.5,65C 24.4471,74.2636 24.7804,83.4303 24.5,92.5C 24.2907,93.086 23.9574,93.586 23.5,94C 21.1902,94.4966 18.8568,94.6633 16.5,94.5C 16.5,82.1667 16.5,69.8333 16.5,57.5C 28.8378,57.6665 41.1712,57.4999 53.5,57C 76.8675,54.4545 84.7009,41.9545 77,19.5C 69.9308,10.8881 60.7642,7.05472 49.5,8C 38.505,7.50015 27.505,7.33349 16.5,7.5C 16.5,5.16667 16.5,2.83333 16.5,0.5 Z"/></g>
<g><path style="opacity:0.805" fill="#fefffe" d="M 111.5,0.5 C 132.167,0.5 152.833,0.5 173.5,0.5C 173.5,2.83333 173.5,5.16667 173.5,7.5C 153.17,8.26309 132.837,8.42976 112.5,8C 111.565,5.6194 111.232,3.1194 111.5,0.5 Z"/></g>
<g><path style="opacity:0.861" fill="#fefffe" d="M 185.5,0.5 C 210.5,0.5 235.5,0.5 260.5,0.5C 260.5,2.83333 260.5,5.16667 260.5,7.5C 249.167,7.5 237.833,7.5 226.5,7.5C 226.5,36.5 226.5,65.5 226.5,94.5C 223.833,94.5 221.167,94.5 218.5,94.5C 218.5,65.8333 218.5,37.1667 218.5,8.5C 207.521,7.68033 196.521,7.347 185.5,7.5C 185.5,5.16667 185.5,2.83333 185.5,0.5 Z"/></g>
<g><path style="opacity:0.867" fill="#fefffe" d="M 304.5,0.5 C 335.108,-2.80003 354.608,10.2 363,39.5C 365.663,59.1965 359.163,75.0299 343.5,87C 338.449,89.9085 333.116,92.2418 327.5,94C 303.121,98.8789 284.287,91.0456 271,70.5C 261.403,47.9898 265.236,28.1564 282.5,11C 289.266,6.11514 296.6,2.61514 304.5,0.5 Z M 307.5,7.5 C 340.652,6.48483 356.485,22.4848 355,55.5C 349.783,76.5413 336.283,87.5413 314.5,88.5C 291.833,87.3266 278.333,75.66 274,53.5C 272.341,28.6785 283.507,13.3452 307.5,7.5 Z"/></g>
<g><path style="opacity:0.847" fill="#fefffe" d="M 111.5,43.5 C 132.167,43.5 152.833,43.5 173.5,43.5C 173.5,45.8333 173.5,48.1667 173.5,50.5C 152.833,50.5 132.167,50.5 111.5,50.5C 111.5,48.1667 111.5,45.8333 111.5,43.5 Z"/></g>
<g><path style="opacity:0.847" fill="#fefffe" d="M 111.5,87.5 C 132.167,87.5 152.833,87.5 173.5,87.5C 173.5,89.8333 173.5,92.1667 173.5,94.5C 152.833,94.5 132.167,94.5 111.5,94.5C 111.5,92.1667 111.5,89.8333 111.5,87.5 Z"/></g>
</svg>
